<svg xmlns="http://www.w3.org/2000/svg" xml:space="preserve" id="Layer_1" width="438.4" height="289.1" x="0" y="0" style="enable-background:new 0 0 438.4 289.1" version="1.1"><style>.st1{fill:#d3462f}.st2{fill:#fff}.st3{fill:#d14b34}</style><path d="M74.3 99.5c4.1-4.4 10.2-5 15.7-7.7-4.6-6-9-11.4-11.7-18.8-6.3 4.2-9.7 9-10.9 15.3-.7 3.7-.2 7.2 2.6 10.1 1.2 1.2 2.8 2.6 4.3 1.1zm328.2-15.8c.5-.3 1.1-.5 1.6-.8-.5.2-1 .5-1.6.8zm7.2-4.2.9-.6-.9.6zm-1.6 1 .9-.6-.9.6zM136.8 91.2c.2-.2.3-.4.5-.7-.2.3-.4.5-.5.7zm269.6-9.7c.3-.2.6-.4 1-.6-.3.3-.7.5-1 .6zm-5.5 3c.3-.1.6-.3.9-.5-.3.2-.6.3-.9.5zm13.5-8.5c.5-.4 1-.8 1.5-1.3-.5.5-1 .9-1.5 1.3zm-3.1 2.4c.3-.2.6-.5 1-.7-.4.2-.7.4-1 .7zm1.5-1.2c.3-.3.7-.5 1-.8-.3.3-.6.6-1 .8zM178.6 96.1c1.3.5 2.7 1 4 1.5.7.3 1.3.5 2 .8.3.1.4.2.5.2-.2-.1-.3-.1-.5-.2.3.1.6.2.5.2 2.2 1 4.4 2 6.5 3 5.2 2.5 10.3 5.1 15.5 7.7 22.5 11.3 46.7 20.7 71.7 25.1 15 2.7 29.7 3.3 44.7.2 11.8-2.4 23.3-7.6 33.3-14.2 13.4-8.9 24.9-20 34.9-32.4-11 3.3-22.7 3.9-35 2.5-21.4-2.3-41.8-8.8-62-15.7-20.2-6.9-40.1-14.7-61.5-17.5-9.1-1.2-52.3-6.6-77-1.8-6.2 1.5-6.8 2.1-7 8.2-.3 8.9-2.4 17-9.3 23.3-.6.5-1 1.2-1.6 2.1 6.1.3 12.1.8 18.1 1.6 7.4 1.2 14.9 2.9 22.2 5.4zm226-13.5c.4-.2.8-.4 1.1-.6-.3.2-.7.4-1.1.6zm-10.4 4.6c.3-.1.5-.2.8-.3-.3.2-.6.2-.8.3zm1.7-.6c.3-.1.6-.2.8-.3-.3.1-.6.2-.8.3zm-258.6 3.8c.1-.2.2-.3.3-.5-.1.2-.2.3-.3.5zM397.5 86c.3-.1.6-.2.8-.4-.2.1-.5.3-.8.4zm1.7-.7c.3-.1.6-.3.9-.4-.3.1-.6.2-.9.4zm-261.5 4.5c.1-.2.3-.4.4-.6-.1.2-.3.4-.4.6zm254.7-2c.3-.1.6-.2.8-.3-.2.1-.5.2-.8.3z" style="fill:#e25e40"/><path d="M427.8 44.5c-7.3-3.5-14.5-7-22.2-9.5-12.1-4-24.6-3.7-37-5-30.9-3.2-61.6-1.6-92.3 2.2-2.3.3-4.6.7-5.2 3.3-2 7.8-5.4 15.2-14 20.8 13.2 5.6 30.6 5 44.1 6.6 13.5 1.8 26.8 3.7 40.5 4.3 13.2.5 26.7.9 39.9 0 13.9-1 27.4-4 39.6-11 3.2-1.8 6.2-3.9 9.2-6.1.9-3 .2-4.3-2.6-5.6z" class="st1"/><path d="M430.3 50.1c-.1.3-.2.5-.3.8.2-.3.3-.6.3-.8z" class="st1"/><path d="M114.1 91.6c5.2.1 26.5-1.7 29.3-24.8 1.1-9.1-1.8-34.2-27.4-34.2-28.9 0-36.4 27.5-30.5 41.4 4.3 11.6 12.2 17.1 28.6 17.6z" class="st2"/><path d="M419.3 72.2c-1.2.9-2.3 1.6-3.3 2.5-.5.4-1 .9-1.5 1.3-.2.1-.3.3-.5.4-.3.3-.7.5-1 .8-.2.2-.4.3-.6.5-.3.2-.6.5-1 .7-.2.2-.4.3-.7.5l-.9.6c-.2.2-.5.3-.7.5l-.9.6c-.2.1-.5.3-.7.4-.3.2-.6.4-1 .6-.2.1-.4.3-.7.4-.4.2-.8.4-1.1.6-.2.1-.3.2-.5.3-.5.3-1.1.6-1.6.8-.2.1-.5.2-.7.4-.3.2-.6.3-.9.5-.3.1-.5.2-.8.4-.3.1-.6.3-.9.4-.3.1-.6.2-.8.4-.3.1-.6.2-.8.4l-.9.3c-.3.1-.6.2-.8.3l-.9.3c-.3.1-.5.2-.8.3l-.9.3c-.3.1-.6.2-.8.3l-.9.3c-10 12.4-21.5 23.5-34.9 32.4-10 6.6-21.5 11.8-33.3 14.2-15 3-29.7 2.4-44.7-.2-24.9-4.4-49.1-13.8-71.7-25.1-5.1-2.6-10.3-5.2-15.5-7.7-2.2-1-4.3-2.1-6.5-3-.1 0-.2-.1-.5-.2-.7-.3-1.3-.5-2-.8-1.3-.5-2.7-1-4-1.5-7.3-2.6-14.7-4.3-22.3-5.4-6-.7-12.1-1.3-18.1-1.6-.1.2-.3.4-.4.6 0 0 0 .1-.1.1-.1.2-.2.3-.3.5 0 .1-.1.1-.1.2-.1.2-.3.4-.5.7 8.2 3.3 15.4 6.5 20.3 12.8 4.2 5.4 9.9 7.6 16.1 9.3 2.9.8 6 1.5 8.7 2.7 13.6 6.3 25.8 15.2 38.8 22.6 21.2 12 43.1 21.8 68.4 20.1 6.4-.4 12.7-1.1 19.1-2 20.8-2.9 40.7-9 58.9-19.6 24-13.9 41.5-34 52.5-59.7.5-1.7 1.9-3.5-.3-5.5z" class="st3"/><path d="M184.6 98.4c.2.1.3.1.5.2.1.1-.2 0-.5-.2z" class="st3"/><path d="M136.5 97.7c-7.5-2.3-14.9.1-22.3-.3-1.9-.1-3.9-.3-5.8-.3-15.1-.5-25 1.1-38 12.6-7.2 8.6-20.4 25-27.5 34.3-2.9 3.8-2.7 7.2-1.4 11.6 4 13.5 13.7 22.6 23.6 31.5 3.1 2.8 6.6 3.1 9.4.3 5.1-5.3 4.8-9 .2-14.8-2.2-2.8-11.2-11-12.6-13-2.1-2.9-2.1-5.9.4-8.3 4.9-4.9 9.9-9.8 16.2-13 5.4-2.8 7.2-1.5 6.7 4.2-.8 9.6-1.3 19.3-1.1 29 .1 5.4.8 11.2-3.7 15.7-1.3 1.3-1.6 3.4-1.7 5.5-.9 21.1-4 42-6.4 62.9-.7 6.3-1.8 12.6-2.2 19-.4 6 .9 8.7 5.9 9.2 6.8.7 9.8-2.2 10.9-7.1 4.5-18.6 8.8-37.2 13.4-55.8 1.6-6.5 4.8-20.7 13.1-21.4 12.9-1.1 15.9 1.1 19.2 13.6.4 1.3.7 2.7.9 4.1 1.6 10.2 3.2 20.3 4.7 30.5 1.4 9.3 2.8 18.7 4.3 28 .7 4.3 2.8 7.5 7.7 7.7 8.4.3 13.1-4.4 11.4-19-2.2-19.6-5.8-56-10.7-75.5 0 0 .6 0-5.3-9.4-1.3-2.1-1.4-5.1-.2-7.3 2.2-4.1 1.4-8.2.7-12.2-1.3-7.6-7.2-25.5-5.4-26.7 1.3-.9 2.7-.6 3.8.4 5.1 4.3 10.6 8.2 14.7 13.5 4 5.2 4 10 .2 15.3-2.3 3.2-4.8 6.1-7 9.3-2.2 3.3-1.9 6.4.8 8.9 2.8 2.6 6.1 1.9 8.7-.6 2-1.9 4-3.8 5.6-6.1 3.6-5.3 7.4-10.4 11.1-15.6 4.4-6.2 4.2-9-.4-15.3-6.9-9.3-10.2-16.9-18.3-27.6-6.3-9.2-13.9-14.9-23.6-17.8z" class="st2"/><path d="M381.6 67.2c-13.2.9-26.7.6-39.9 0-13.7-.6-27-2.4-40.5-4.3-13.5-1.6-30.9-1-44.1-6.6-.1.1-.2.2-.4.2 7.9 2.8 17.3 5.8 24.1 8.2 24.3 8.9 48.8 17.1 74.5 21 21.2 3.2 40.8.4 58.1-13.7 7.3-5.9 13.2-12.3 16.7-21.3.1-.3.2-.6.3-.8-3 2.2-6 4.3-9.2 6.1-12.3 7.2-25.7 10.2-39.6 11.2z" style="fill:#c43426"/><path d="M435.3 39.9c-4.6 1-8-1.8-11.7-3.5-7.6-3.5-15.3-6.6-23.6-7.9-14.8-2.2-29.8-3.5-44.7-4.5-28.7-1.9-57.2 1.1-85.7 3-4.6.3-5.8 1.5-4.4 5.5 1.4 4 .3 7-1.4 10.2-4.9 9.4-12.8 13.3-23.3 10.9-7.6-1.8-66.3-7.8-87.8-3.2-3.3.7-5.1-.5-6.1-3.2-2.3-6.1-5.7-10.8-11.3-14.5-13.9-9.3-28-6.5-40.7 0-11.2 5.7-15.9 18-16.2 30.6-.1 2.9-1 4-3.7 5.4-12.6 6.4-16.7 22.3-9 33.4 2.4 3.4.7 4.2-1.2 6.5-10.8 14.1-18.9 22.1-27.5 32.6-2.6 3.1-3.8 6.7-2.8 10.8.9 3.5 2.2 6.8 3.8 10.1 5.4 11.5 14 20.6 22.5 29.7 2.4 2.5 5.8 3.6 9.5 3 3.1-.4 3.3 1.9 3.2 4.5-.1 1.9-.3 3.9-.4 5.8-1 15-3.9 29.7-5.1 44.7-.6 8.6-.9 17.2-2.8 25.7-.9 3.9-2.6 3.8-6.2 3.4-5.8-.6-38.5.1-49-1.6-2.7-.4-5.6-.9-8.2.7-1 .6-1.8 1.3-1.5 2.7.2 1 1 1.4 1.7 1.5 2.2.3 31.6-.2 54.6.9 2.9-.5 6.4-.7 9.4 1.6 4.4 3.6 8 4.5 13.3 4.2 7.1-.4 11.4-3.4 12.8-10.4 3.2-15.2 7.7-30.1 10.4-45.4 1.5-8.2 4.1-16.1 7.3-23.8 1.7-4 5-4.8 8.8-5 3.9-.1 6.4 1.9 7.8 5.1 1 2.3 1.7 4.7 2.1 7.2 1.8 11.8 3.4 23.6 5.1 35.4 1.4 9.3 2.8 18.7 4.3 28 .4 2.4 1.9 5.6 4.9 6.7 6.3 2.1 11.4 1.8 17.5-.6 4.4-1.8 7.3-5.1 6.9-10.3-.3-4.2-.5-8.3-.8-12.5-1.4-20.8-4.1-41.4-7.7-61.9-1.2-7.2-2.7-13.1.7-14.8.7-.3 7-3.4 7.5-4.1 6.8-8.4 13.1-17.2 18.5-26.6 2.6-4.6 2.1-8.3-.8-12.3-4.8-6.5-12.9-17.7-17.9-27.7 6.8 1.2 14.6 4.9 20.6 8.5 15.2 9.2 29.7 19.6 45.9 26.9 14.4 6.5 29.2 12.1 45.5 12.3 27.6.3 54-4.5 79.2-16.3 31.1-14.6 53.3-37.4 66.3-69.2 3.2-7.7 6.1-15.5 10.4-22.7 2.1-3.5 4.1-7.3 3.8-11.7.1-1.7.1-4.4-2.8-3.8zM116 32.6c25.6 0 28.5 25 27.4 34.2-2.8 23.1-24.1 24.9-29.3 24.8-16.4-.5-24.3-6-28.6-17.6-5.9-13.9 1.7-41.4 30.5-41.4zM67.4 88.3C68.6 82 72 77.2 78.3 73c2.7 7.4 7 12.8 11.7 18.8-5.5 2.7-11.6 3.3-15.7 7.7-1.5 1.6-3.1.2-4.3-1-2.7-2.9-3.2-6.5-2.6-10.2zm110.9 54.5c4.7 6.3 4.8 9.1.4 15.3-3.7 5.2-7.5 10.3-11.1 15.6-1.6 2.3-3.6 4.2-5.6 6.1-2.6 2.5-5.9 3.2-8.7.6-2.7-2.5-3.1-5.6-.8-8.9 2.2-3.2 4.8-6.2 7-9.3 3.8-5.3 3.8-10.1-.2-15.3-4.1-5.3-9.6-9.2-14.7-13.5-1.1-1-2.5-1.3-3.8-.4-1.8 1.2 4.1 19.1 5.4 26.7.7 4 1.5 8.1-.7 12.2-1.2 2.2-1.1 5.2.2 7.3 6 9.4 5.3 9.4 5.3 9.4 5 19.6 8.5 55.9 10.7 75.5 1.7 14.6-3 19.3-11.4 19-4.9-.2-7-3.3-7.7-7.7-1.5-9.3-2.8-18.7-4.3-28-1.6-10.2-3.1-20.3-4.7-30.5-.2-1.4-.5-2.7-.9-4.1-3.4-12.5-6.3-14.7-19.2-13.6-8.3.7-11.4 15-13.1 21.4-4.6 18.6-9 37.2-13.4 55.8-1.2 4.9-4.2 7.8-10.9 7.1-5-.5-6.3-3.2-5.9-9.2.4-6.4 1.5-12.7 2.2-19 2.4-21 5.4-41.8 6.4-62.9.1-2 .3-4.1 1.7-5.5 4.5-4.5 3.8-10.3 3.7-15.7-.2-9.7.3-19.3 1.1-29 .5-5.7-1.3-7-6.7-4.2-6.3 3.2-11.3 8.1-16.2 13-2.5 2.5-2.5 5.4-.4 8.3 1.5 2 10.4 10.2 12.6 13 4.5 5.8 4.9 9.6-.2 14.8-2.8 2.8-6.3 2.5-9.4-.3-9.9-8.9-19.5-18-23.6-31.5-1.3-4.4-1.5-7.7 1.4-11.6 7.1-9.3 20.2-25.7 27.5-34.3 12.9-11.6 22.9-13.2 38-12.6 1.9.1 3.9.2 5.8.3 7.4.4 14.9-1.9 22.3.3 9.8 3 17.4 8.6 23.5 17.5 8.2 10.9 11.5 18.5 18.4 27.9zm-31.5-.2c9.6 6.4 15.5 12.2 5.5 18.8-3-4.4-3.5-13.3-5.5-18.8zm-68.5 24.7c-3.9-3.5-6.8-5.9-9.5-8.5-1.5-1.5-2.2-3.4-.1-5 3.3-2.4 5.4-6.2 10.9-8.3-.4 7.8-.8 14.2-1.3 21.8zm341.2-89.7c-10.9 25.7-28.4 45.7-52.5 59.7-18.2 10.5-38.1 16.7-58.9 19.6-6.3.9-12.7 1.6-19.1 2-25.3 1.7-47.2-8.1-68.4-20.1-13-7.4-25.1-16.3-38.8-22.6-2.7-1.3-5.8-1.9-8.7-2.7-6.2-1.7-11.9-3.9-16.1-9.3-4.9-6.3-12.1-9.5-20.3-12.8.2-.2.3-.4.5-.7 0-.1.1-.1.1-.2.1-.2.2-.3.3-.5 0 0 0-.1.1-.1.1-.2.3-.4.4-.6.6-.9 1-1.5 1.6-2.1 6.9-6.3 9-14.4 9.3-23.3.2-6.1.9-6.8 7-8.2 24.7-4.8 67.9.6 77 1.8 21.4 2.8 41.2 10.6 61.5 17.5 20.2 6.9 40.6 13.4 62 15.7 12.3 1.3 24 .8 35-2.5l.9-.3c.3-.1.6-.2.8-.3l.9-.3c.3-.1.5-.2.8-.3l.9-.3c.3-.1.6-.2.8-.3l.9-.3c.3-.1.6-.2.8-.4.3-.1.6-.2.8-.4.3-.1.6-.3.9-.4.3-.1.5-.2.8-.4.3-.1.6-.3.9-.5.2-.1.5-.2.7-.4.5-.3 1.1-.5 1.6-.8.2-.1.3-.2.5-.3.4-.2.8-.4 1.1-.6.2-.1.4-.3.7-.4.3-.2.6-.4 1-.6.2-.1.5-.3.7-.4l.9-.6c.2-.1.5-.3.7-.5l.9-.6c.2-.2.4-.3.7-.5.3-.2.6-.5 1-.7.2-.2.4-.3.6-.5.3-.3.7-.5 1-.8.2-.1.3-.3.5-.4.5-.4 1-.8 1.5-1.3 1-.9 2.2-1.6 3.3-2.5 2.4 2.1 1 3.9.4 5.5zm10.8-27.5c-.1.3-.2.5-.3.8-3.5 8.9-9.4 15.3-16.7 21.3-17.3 14-36.9 16.9-58.1 13.7-25.7-3.9-50.2-12.1-74.5-21-6.8-2.5-16.1-5.4-24.1-8.2.1-.1.2-.2.4-.2 8.7-5.6 12-13 14-20.8.7-2.6 2.9-3 5.2-3.3 30.7-3.8 61.4-5.4 92.3-2.2 12.4 1.3 24.9 1 37 5 7.7 2.6 14.9 6 22.2 9.5 2.9 1.1 3.6 2.4 2.6 5.4zm-146.2-48c-4.4 1.6-9.1 2.5-13.6 3.8-1.5.4-2.3 1.5-1.9 3.1.4 1.8 1.8 2 3.2 1.6 3-.7 6-1.3 8.8-2.4 11.5-4.4 22.8-3.7 34.2.3 2.3.8 4.6 2.3 7.4.9-.5-.7-.9-1.5-1.5-1.8-11.6-5.8-23.4-10.4-36.6-5.5zm-254.4 123c.9-1 .9-2.1-.1-2.9-.6-.5-1.5-.8-2.2-.7-1 .2-2.1.7-2.9 1.3-9.3 7.8-12.7 17.8-11 29.6.5 3.3 1.6 7 5.8 8.6.6-1 .8-1.3.8-1.5 0-.5 0-1.1-.2-1.6-3.4-11.3-1.2-21.2 6.9-29.8 1-1 1.9-2 2.9-3zm141.6 156.7c-1.4.5-2.5 1.4-2.3 3 .3 2.1 2.1 2.5 3.7 2.6 8.6.6 17.2 1.2 25.7 1.6 2.4.1 5.1.3 6.5-2.5-5.2-3.4-28.4-6.6-33.6-4.7z"/><path d="M195.1 181.2c5.9-4.2 10.3-9.4 10.2-17.2-5.1 4.4-8 10.4-13.5 14.2-1 .7-.9 2 .2 2.8 1 .7 2.1.9 3.1.2z"/></svg>